<?xml version="1.0" encoding="utf-8"?>
<!-- Generator: Adobe Illustrator 19.2.0, SVG Export Plug-In . SVG Version: 6.00 Build 0)  -->
<svg version="1.1" id="Layer_1" xmlns="http://www.w3.org/2000/svg" xmlns:xlink="http://www.w3.org/1999/xlink" x="0px" y="0px"
	 viewBox="0 0 190 86" style="enable-background:new 0 0 190 86;" xml:space="preserve">
<style type="text/css">
	.st0{fill:none;stroke:#FFFFFF;stroke-linecap:round;stroke-linejoin:round;stroke-miterlimit:10;}
	.st1{fill:#FFFFFF;}
	.st2{fill:none;stroke:#FFFFFF;stroke-width:2;stroke-linecap:round;stroke-miterlimit:10;}
	.st3{fill:#808083;}
	.st4{fill:none;stroke:#FFFFFF;stroke-width:2;stroke-linecap:round;stroke-linejoin:round;stroke-miterlimit:10;}
	.st5{fill:#FFFFFF;stroke:#FFFFFF;stroke-width:1.7928;stroke-linecap:round;stroke-linejoin:round;stroke-miterlimit:10;}
	.st6{fill:none;stroke:#FFFFFF;stroke-width:1.7928;stroke-linecap:round;stroke-linejoin:round;stroke-miterlimit:10;}
	.st7{fill:none;stroke:#FFFFFF;stroke-width:2.5321;stroke-linecap:round;stroke-linejoin:round;stroke-miterlimit:10;}
	.st8{fill:#FFFFFF;}
</style>
<g>
	<path class="st8" d="M54.9,0.7v66.5H41.6V0.7H54.9z"/>
	<path class="st8" d="M169.6,31.8l-10.9,21.5h30.6v13.9h-52.2l10.8-21.6h-11.2V31.8H169.6z"/>
	<path class="st8" d="M119,31.8v18.7c0,2.3-0.8,3.5-2.5,3.5c-1.8,0-2.6-1.1-2.6-3.2v-19h-13.3v22.3c0,3.8,0.8,13,11.3,13
		c2.2,0,4.9-0.8,7.2-2.2c-0.6,2.4-1.6,7.4-8.8,7.4c-15.3,0-14.1-16.8-14.1-22.5c0-5.7-1.7-10.4-5-13.7c-3.3-3.3-7.8-5-13.5-5
		c-5.1,0-9.5,1.8-13.1,5.4c-3.6,3.6-5.4,7.9-5.4,13.1c0,5.3,1.8,9.7,5.3,13.2c3.6,3.5,8,5.3,13.3,5.3c0.9,0,1.9-0.1,3-0.3V54
		c-1,0.6-2.1,0.9-3.2,0.9c-1.4,0-2.6-0.5-3.5-1.4c-0.9-0.9-1.4-2.2-1.4-3.6c0-1.4,0.5-2.6,1.5-3.6c1-1,2.2-1.5,3.6-1.5
		c1.5,0,2.8,0.6,3.7,1.7c0.9,1.1,1.4,2.6,1.4,4.5c0,0.8,0,2,0,3.7c0,14.1,4.5,28.2,20.7,30.4c14.8,2,28.6-3.2,28.6-25.3V31.8H119z"
		/>
	<path class="st8" d="M0.7,33.2c0-5.7,1.7-10.4,5-13.7c3.3-3.4,7.8-5,13.6-5c5.1,0,9.5,1.8,13.1,5.4c3.6,3.6,5.4,7.9,5.4,13.1
		c0,5.3-1.8,9.7-5.3,13.2c-3.6,3.5-8,5.3-13.3,5.3c-0.9,0-1.9-0.1-3-0.3V37.3c1,0.6,2.1,0.9,3.2,0.9c1.4,0,2.6-0.5,3.5-1.4
		c0.9-0.9,1.4-2.2,1.4-3.6c0-1.4-0.5-2.6-1.5-3.6c-1-1-2.2-1.5-3.6-1.5c-1.5,0-2.8,0.6-3.7,1.7c-0.9,1.1-1.3,2.5-1.4,4.3l0,50.8H0.7
		l0-50.8C0.7,33.8,0.7,33.5,0.7,33.2z"/>
</g>
</svg>
