<?xml version="1.0" encoding="utf-8"?>
<!-- Generator: Adobe Illustrator 19.2.0, SVG Export Plug-In . SVG Version: 6.00 Build 0)  -->
<svg version="1.1" id="Layer_1" xmlns="http://www.w3.org/2000/svg" xmlns:xlink="http://www.w3.org/1999/xlink" x="0px" y="0px"
	 viewBox="0 0 34 34" style="enable-background:new 0 0 34 34;" xml:space="preserve">
<style type="text/css">
	.st0{fill:none;stroke:#489744;stroke-linecap:round;stroke-linejoin:round;stroke-miterlimit:10;}
	.st1{fill:#FFFFFF;}
	.st2{fill:none;stroke:#FFFFFF;stroke-width:2;stroke-linecap:round;stroke-miterlimit:10;}
	.st3{fill:#808083;}
	.st4{fill:none;stroke:#FFFFFF;stroke-width:2;stroke-linecap:round;stroke-linejoin:round;stroke-miterlimit:10;}
	.st5{fill:#FFFFFF;stroke:#FFFFFF;stroke-width:1.7928;stroke-linecap:round;stroke-linejoin:round;stroke-miterlimit:10;}
	.st6{fill:none;stroke:#489744;stroke-width:1.7928;stroke-linecap:round;stroke-linejoin:round;stroke-miterlimit:10;}
	.st7{fill:none;stroke:#FFFFFF;stroke-width:2.5321;stroke-linecap:round;stroke-linejoin:round;stroke-miterlimit:10;}
	.st8{fill:#489744;}
</style>
<g>
	<path class="st1" d="M4.7,9.9c0.1-0.2,0.1-0.3,0.2-0.5c0-0.1,0-0.2,0.1-0.2C5,9.1,5,9,5,8.9c0.1-0.2,0.1-0.3,0.2-0.4
		c0.1-0.1,0.1-0.3,0.2-0.4C5.5,8,5.5,7.8,5.6,7.7c0.1-0.1,0.1-0.2,0.2-0.3C5.9,7.3,5.9,7.2,6,7.1C6,7.1,6.1,7,6.2,6.9
		c0.2-0.3,0.3-0.4,0.3-0.4S6.3,6.6,6.1,6.8C6,6.9,5.9,7,5.9,7C5.8,7.1,5.7,7.2,5.6,7.3C5.6,7.4,5.5,7.5,5.4,7.6
		C5.3,7.7,5.2,7.8,5.1,7.9C5,8.1,5,8.2,4.9,8.3C4.8,8.5,4.7,8.6,4.6,8.8c0,0.1-0.1,0.2-0.1,0.2c0,0.1-0.1,0.2-0.1,0.2
		C4.3,9.4,4.3,9.6,4.2,9.8c-0.1,0.4-0.2,0.7-0.3,1.1c-0.1,0.4-0.1,0.8-0.1,1.2c0,0.4,0,0.8,0.1,1.2c0,0.1,0,0.2,0,0.3
		c0,0.1,0,0.2,0.1,0.3c0.1,0.2,0.1,0.4,0.2,0.6c0.1,0.2,0.1,0.4,0.2,0.5c0,0.1,0.1,0.2,0.1,0.2c0,0.1,0.1,0.2,0.1,0.2
		c0.1,0.2,0.2,0.3,0.2,0.4C5,16,5,16.2,5.1,16.3c0.1,0.1,0.2,0.2,0.2,0.4c0.1,0.1,0.2,0.2,0.3,0.3c0.1,0.1,0.2,0.2,0.2,0.3
		c0.1,0.1,0.1,0.1,0.2,0.2c0.3,0.2,0.4,0.4,0.4,0.4s-0.1-0.2-0.3-0.4c0-0.1-0.1-0.1-0.2-0.2c-0.1-0.1-0.1-0.2-0.2-0.3
		c-0.1-0.1-0.1-0.2-0.2-0.3c-0.1-0.1-0.1-0.2-0.2-0.4c-0.1-0.1-0.1-0.3-0.2-0.4c-0.1-0.1-0.1-0.3-0.2-0.4C5,15.2,5,15.1,4.9,15
		c0-0.1,0-0.2-0.1-0.2c0-0.2-0.1-0.3-0.2-0.5c-0.1-0.4-0.2-0.7-0.2-1.1c-0.1-0.4-0.1-0.7-0.1-1.1c0-0.4,0-0.8,0.1-1.1
		C4.5,10.6,4.6,10.3,4.7,9.9z"/>
	<path class="st1" d="M32.9,30.6L24.3,22c-0.5-0.5-1.2-0.6-1.7-0.4c-0.5-0.5-1.4-1.7-0.3-4.1c2.3-4.5,1.7-9.9-2-13.6
		C15.8-0.5,8.5-0.5,4,4c-4.5,4.5-4.5,11.8,0,16.3c3.7,3.7,9.4,4.3,13.7,2c2.3-1.1,3.4-0.3,4,0.3c-0.2,0.6-0.1,1.3,0.4,1.8l8.6,8.6
		c0.6,0.6,1.7,0.6,2.3,0C33.6,32.3,33.6,31.3,32.9,30.6z M19.4,19.4c-4,4-10.6,4-14.6,0c-4-4-4-10.6,0-14.6c4-4,10.6-4,14.6,0
		C23.4,8.8,23.4,15.4,19.4,19.4z"/>
</g>
</svg>
