<?xml version="1.0" encoding="utf-8"?>
<!-- Generator: Adobe Illustrator 19.2.0, SVG Export Plug-In . SVG Version: 6.00 Build 0)  -->
<svg version="1.1" id="Layer_1" xmlns="http://www.w3.org/2000/svg" xmlns:xlink="http://www.w3.org/1999/xlink" x="0px" y="0px"
	 viewBox="0 0 58 36" style="enable-background:new 0 0 58 36;" xml:space="preserve">
<style type="text/css">
	.st0{fill:none;stroke:#489744;stroke-linecap:round;stroke-linejoin:round;stroke-miterlimit:10;}
	.st1{fill:#FFFFFF;}
	.st2{fill:none;stroke:#FFFFFF;stroke-width:2;stroke-linecap:round;stroke-miterlimit:10;}
	.st3{fill:#808083;}
	.st4{fill:none;stroke:#FFFFFF;stroke-width:2;stroke-linecap:round;stroke-linejoin:round;stroke-miterlimit:10;}
	.st5{fill:#FFFFFF;stroke:#FFFFFF;stroke-width:1.7928;stroke-linecap:round;stroke-linejoin:round;stroke-miterlimit:10;}
	.st6{fill:none;stroke:#489744;stroke-width:1.7928;stroke-linecap:round;stroke-linejoin:round;stroke-miterlimit:10;}
	.st7{fill:none;stroke:#FFFFFF;stroke-width:2.5321;stroke-linecap:round;stroke-linejoin:round;stroke-miterlimit:10;}
	.st8{fill:#489744;}
</style>
<g>
	<g>
		<path class="st1" d="M20.1,17.1v14.7c0,1.8,1.5,3.3,3.3,3.3c1.8,0,3.3-1.5,3.3-3.3V17.1c0-1.8-1.5-3.3-3.3-3.3
			C21.6,13.8,20.1,15.3,20.1,17.1z"/>
		<path class="st1" d="M30.3,9.5v22.2c0,1.8,1.5,3.3,3.3,3.3c1.8,0,3.3-1.5,3.3-3.3V9.5c0-1.8-1.5-3.3-3.3-3.3
			C31.8,6.3,30.3,7.7,30.3,9.5z"/>
		<path class="st1" d="M40.5,4.3v27.5c0,1.8,1.5,3.3,3.3,3.3c1.8,0,3.3-1.5,3.3-3.3V4.3C47,2.5,45.6,1,43.7,1
			C41.9,1,40.5,2.5,40.5,4.3z"/>
		<path class="st1" d="M50.7,22.3v9.4c0,1.8,1.5,3.3,3.3,3.3c1.8,0,3.3-1.5,3.3-3.3v-9.4c0-1.8-1.5-3.3-3.3-3.3
			C52.1,19.1,50.7,20.5,50.7,22.3z"/>
	</g>
	<g>
		<line class="st2" x1="7.2" y1="17.1" x2="7.2" y2="27.9"/>
		<line class="st2" x1="1.8" y1="22.5" x2="12.5" y2="22.5"/>
	</g>
</g>
</svg>
