<?xml version="1.0" encoding="utf-8"?>
<!-- Generator: Adobe Illustrator 19.2.0, SVG Export Plug-In . SVG Version: 6.00 Build 0)  -->
<svg version="1.1" id="Layer_1" xmlns="http://www.w3.org/2000/svg" xmlns:xlink="http://www.w3.org/1999/xlink" x="0px" y="0px"
	 viewBox="0 0 50 36" style="enable-background:new 0 0 50 36;" xml:space="preserve">
<style type="text/css">
	.st0{fill:none;stroke:#489744;stroke-linecap:round;stroke-linejoin:round;stroke-miterlimit:10;}
	.st1{fill:#FFFFFF;}
	.st2{fill:none;stroke:#FFFFFF;stroke-width:2;stroke-linecap:round;stroke-miterlimit:10;}
	.st3{fill:#808083;}
	.st4{fill:none;stroke:#FFFFFF;stroke-width:2;stroke-linecap:round;stroke-linejoin:round;stroke-miterlimit:10;}
	.st5{fill:#FFFFFF;stroke:#FFFFFF;stroke-width:1.7928;stroke-linecap:round;stroke-linejoin:round;stroke-miterlimit:10;}
	.st6{fill:none;stroke:#489744;stroke-width:1.7928;stroke-linecap:round;stroke-linejoin:round;stroke-miterlimit:10;}
	.st7{fill:none;stroke:#FFFFFF;stroke-width:2.5321;stroke-linecap:round;stroke-linejoin:round;stroke-miterlimit:10;}
	.st8{fill:#489744;}
</style>
<g>
	<g>
		<g>
			<line class="st2" x1="7.2" y1="13" x2="7.2" y2="23.7"/>
			<line class="st2" x1="1.8" y1="18.4" x2="12.5" y2="18.4"/>
		</g>
	</g>
	<g>
		<g>
			<path class="st1" d="M36.1,5c-4.5-4.5-11.8-4.5-16.3,0c-4.5,4.5-4.5,11.8,0,16.3c3.7,3.7,9.4,4.3,13.7,2c3.1-1.5,4.1,0.5,4.3,0.7
				c0.8,0.6,1.6,1.3,2.1,1.9c0.3,0.3,0.5,0.5,0.6,0.7c0.1,0.1,0.1,0.2,0.2,0.2c0,0,0.1,0.1,0.1,0.1l0.8-0.8c0,0,0,0-0.1-0.1
				c0,0-0.1-0.1-0.2-0.2c-0.2-0.1-0.4-0.4-0.7-0.6c-0.6-0.5-1.3-1.3-1.9-2.1c-0.2-0.2-2.1-1.2-0.7-4.4C40.4,14.1,39.7,8.6,36.1,5z
				 M35.2,20.4c-4,4-10.6,4-14.6,0c-4-4-4-10.6,0-14.6c4-4,10.6-4,14.6,0C39.3,9.8,39.3,16.4,35.2,20.4z"/>
			<path class="st1" d="M22.3,7.5c0,0-0.1,0.2-0.3,0.4c0,0.1-0.1,0.1-0.2,0.2c-0.1,0.1-0.1,0.2-0.2,0.3c-0.1,0.1-0.1,0.2-0.2,0.3
				c-0.1,0.1-0.1,0.2-0.2,0.4c-0.1,0.1-0.1,0.3-0.2,0.4c-0.1,0.1-0.1,0.3-0.2,0.4c0,0.1-0.1,0.2-0.1,0.2c0,0.1,0,0.2-0.1,0.2
				c0,0.2-0.1,0.3-0.2,0.5c-0.1,0.3-0.2,0.7-0.2,1.1c-0.1,0.4-0.1,0.7-0.1,1.1c0,0.4,0,0.8,0.1,1.1c0,0.4,0.1,0.7,0.2,1.1
				c0.1,0.2,0.1,0.3,0.2,0.5c0,0.1,0,0.2,0.1,0.2c0,0.1,0.1,0.2,0.1,0.2c0.1,0.2,0.1,0.3,0.2,0.4c0.1,0.1,0.1,0.3,0.2,0.4
				c0.1,0.1,0.1,0.3,0.2,0.4c0.1,0.1,0.1,0.2,0.2,0.3c0.1,0.1,0.1,0.2,0.2,0.3c0.1,0.1,0.1,0.2,0.2,0.2c0.2,0.3,0.3,0.4,0.3,0.4
				s-0.2-0.1-0.4-0.4c-0.1-0.1-0.1-0.1-0.2-0.2c-0.1-0.1-0.1-0.2-0.2-0.3c-0.1-0.1-0.2-0.2-0.3-0.3c-0.1-0.1-0.2-0.2-0.2-0.4
				c-0.1-0.1-0.2-0.3-0.3-0.4c-0.1-0.1-0.2-0.3-0.2-0.4c0-0.1-0.1-0.2-0.1-0.2c0-0.1-0.1-0.2-0.1-0.2c-0.1-0.2-0.1-0.3-0.2-0.5
				c0-0.2-0.1-0.4-0.2-0.6c0-0.1-0.1-0.2-0.1-0.3c0-0.1,0-0.2,0-0.3c-0.1-0.4-0.1-0.8-0.1-1.2c0-0.4,0-0.8,0.1-1.2
				c0-0.4,0.2-0.8,0.3-1.1c0.1-0.2,0.1-0.4,0.2-0.5c0-0.1,0.1-0.2,0.1-0.2c0-0.1,0.1-0.2,0.1-0.2c0.1-0.2,0.2-0.3,0.2-0.4
				c0.1-0.1,0.2-0.3,0.3-0.4c0.1-0.1,0.2-0.2,0.2-0.4c0.1-0.1,0.2-0.2,0.3-0.3c0.1-0.1,0.2-0.2,0.2-0.3c0.1-0.1,0.1-0.1,0.2-0.2
				C22.1,7.6,22.3,7.5,22.3,7.5z"/>
			<path class="st1" d="M48.7,33.9c-0.6,0.6-1.7,0.6-2.3,0l-8.6-8.6c-0.6-0.6-0.6-1.7,0-2.3c0.6-0.6,1.7-0.6,2.3,0l8.6,8.6
				C49.4,32.3,49.4,33.3,48.7,33.9z"/>
		</g>
	</g>
</g>
</svg>
