<?xml version="1.0" encoding="utf-8"?>
<!-- Generator: Adobe Illustrator 19.2.0, SVG Export Plug-In . SVG Version: 6.00 Build 0)  -->
<svg version="1.1" id="Layer_1" xmlns="http://www.w3.org/2000/svg" xmlns:xlink="http://www.w3.org/1999/xlink" x="0px" y="0px"
	 viewBox="0 0 26 26" style="enable-background:new 0 0 26 26;" xml:space="preserve">
<style type="text/css">
	.st0{fill:none;stroke:#489744;stroke-linecap:round;stroke-linejoin:round;stroke-miterlimit:10;}
	.st1{fill:#FFFFFF;}
	.st2{fill:none;stroke:#FFFFFF;stroke-width:2;stroke-linecap:round;stroke-miterlimit:10;}
	.st3{fill:#808083;}
	.st4{fill:none;stroke:#FFFFFF;stroke-width:2;stroke-linecap:round;stroke-linejoin:round;stroke-miterlimit:10;}
	.st5{fill:#FFFFFF;stroke:#FFFFFF;stroke-width:1.7928;stroke-linecap:round;stroke-linejoin:round;stroke-miterlimit:10;}
	.st6{fill:none;stroke:#489744;stroke-width:1.7928;stroke-linecap:round;stroke-linejoin:round;stroke-miterlimit:10;}
	.st7{fill:none;stroke:#FFFFFF;stroke-width:2.5321;stroke-linecap:round;stroke-linejoin:round;stroke-miterlimit:10;}
	.st8{fill:#489744;}
</style>
<path class="st1" d="M8.8,24.4c-3,0-5.2-1.9-5.2-4.2c0-2.2,2.7-4.1,5.7-4.1c0.7,0,1.4,0.1,2,0.3c1.6,1.1,2.8,1.8,3.1,3.1
	c0.1,0.3,0.1,0.5,0.1,0.8C14.5,22.6,13,24.4,8.8,24.4 M9.6,11c-2-0.1-3.9-2.3-4.3-4.9c-0.3-2.7,1-4.7,3-4.6c2,0.1,3.9,2.2,4.3,4.8
	C13,8.9,11.6,11,9.6,11 M13.8,14.9c-0.7-0.5-2.1-1.7-2.1-2.4c0-0.8,0.2-1.3,1.5-2.2c1.3-1,2.2-2.4,2.2-4.1c0-2-0.9-3.9-2.5-4.5h2.5
	l1.8-1.3H9.3C5.8,0.3,2.5,3,2.5,6.1c0,3.2,2.4,5.7,6,5.7c0.2,0,0.5,0,0.7,0c-0.2,0.4-0.4,0.9-0.4,1.5c0,0.9,0.5,1.6,1.1,2.2
	c-0.5,0-0.9,0-1.4,0c-4.4,0-7.7,2.8-7.7,5.6c0,2.8,3.7,4.6,8,4.6c5,0,7.7-2.8,7.7-5.6C16.5,17.7,15.9,16.4,13.8,14.9 M25.2,11.2
	h-3.1V8.2h-2.5v3.1h-3.1v2.5h3.1v3.1h2.5v-3.1h3.1V11.2z"/>
</svg>
