<?xml version="1.0" encoding="utf-8"?>
<!-- Generator: Adobe Illustrator 19.2.0, SVG Export Plug-In . SVG Version: 6.00 Build 0)  -->
<svg version="1.1" id="Layer_1" xmlns="http://www.w3.org/2000/svg" xmlns:xlink="http://www.w3.org/1999/xlink" x="0px" y="0px"
	 viewBox="0 0 36 36" style="enable-background:new 0 0 36 36;" xml:space="preserve">
<style type="text/css">
	.st0{fill:none;stroke:#489744;stroke-linecap:round;stroke-linejoin:round;stroke-miterlimit:10;}
	.st1{fill:#FFFFFF;}
	.st2{fill:none;stroke:#FFFFFF;stroke-width:2;stroke-linecap:round;stroke-miterlimit:10;}
	.st3{fill:#808083;}
	.st4{fill:none;stroke:#FFFFFF;stroke-width:2;stroke-linecap:round;stroke-linejoin:round;stroke-miterlimit:10;}
	.st5{fill:#FFFFFF;stroke:#FFFFFF;stroke-width:1.7928;stroke-linecap:round;stroke-linejoin:round;stroke-miterlimit:10;}
	.st6{fill:none;stroke:#489744;stroke-width:1.7928;stroke-linecap:round;stroke-linejoin:round;stroke-miterlimit:10;}
	.st7{fill:none;stroke:#FFFFFF;stroke-width:2.5321;stroke-linecap:round;stroke-linejoin:round;stroke-miterlimit:10;}
	.st8{fill:#489744;}
</style>
<g>
	<path class="st1" d="M11.8,14.8c-0.5-3.5-3-6.3-5.7-6.4c-2.7-0.1-4.5,2.6-4,6.1c0.5,3.5,3,6.4,5.7,6.5C10.5,21,12.2,18.3,11.8,14.8
		z"/>
	<path class="st1" d="M10,28.2c-0.8-0.3-1.6-0.4-2.6-0.4c-2.4,0-4.7,0.9-6.1,2.3v2.1l11,2.7l1.8-0.7c0-0.3,0.1-0.6,0.1-0.9
		c0-0.4,0-0.7-0.1-1.1C13.7,30.5,12.2,29.7,10,28.2z"/>
	<path class="st1" d="M1.4,27.8c1.5-0.6,3.2-1,5-1c0.6,0,1.2,0,1.8,0c-0.8-0.8-1.4-1.7-1.4-2.9c0-0.7,0.2-1.3,0.5-1.9
		c-0.3,0-0.6,0-1,0c-2,0-3.6-0.6-4.9-1.6V27.8z"/>
	<g>
		<circle class="st1" cx="28.1" cy="9.9" r="1.5"/>
		<path class="st1" d="M22.1,2.9l-9.7-1.8l-11,0.9v7C3,7.7,5.2,6.9,7.4,6.9h10.3l-2.3,1.7h-3.3c2.2,0.8,3.3,3.4,3.3,6
			c0,2.2-1.2,4.1-2.9,5.4c-1.7,1.3-2,1.9-2,3c0,0.9,1.8,2.6,2.7,3.2c2.7,1.9,3.6,3.7,3.6,6.7c0,0.1,0,0.2,0,0.3l5.2-2L34.6,34V1.6
			L22.1,2.9z M31.3,13.9c-2.6,3.5-3.2,7.9-3.2,7.9c0,0-0.6-4.4-3.2-7.9c-2.6-3.5-1.5-8.8,3.2-8.8C32.8,5.1,33.9,10.3,31.3,13.9z"/>
	</g>
</g>
</svg>
