<?xml version="1.0" encoding="utf-8"?>
<!-- Generator: Adobe Illustrator 19.2.0, SVG Export Plug-In . SVG Version: 6.00 Build 0)  -->
<svg version="1.1" id="Layer_1" xmlns="http://www.w3.org/2000/svg" xmlns:xlink="http://www.w3.org/1999/xlink" x="0px" y="0px"
	 viewBox="0 0 40 36" style="enable-background:new 0 0 40 36;" xml:space="preserve">
<style type="text/css">
	.st0{fill:none;stroke:#489744;stroke-linecap:round;stroke-linejoin:round;stroke-miterlimit:10;}
	.st1{fill:#FFFFFF;}
	.st2{fill:none;stroke:#FFFFFF;stroke-width:2;stroke-linecap:round;stroke-miterlimit:10;}
	.st3{fill:#808083;}
	.st4{fill:none;stroke:#FFFFFF;stroke-width:2;stroke-linecap:round;stroke-linejoin:round;stroke-miterlimit:10;}
	.st5{fill:#FFFFFF;stroke:#FFFFFF;stroke-width:1.7928;stroke-linecap:round;stroke-linejoin:round;stroke-miterlimit:10;}
	.st6{fill:none;stroke:#489744;stroke-width:1.7928;stroke-linecap:round;stroke-linejoin:round;stroke-miterlimit:10;}
	.st7{fill:none;stroke:#FFFFFF;stroke-width:2.5321;stroke-linecap:round;stroke-linejoin:round;stroke-miterlimit:10;}
	.st8{fill:#489744;}
</style>
<g>
	<path class="st1" d="M12.9,26.9c-0.1,0-0.2,0-0.3,0C10.4,27.1,8.9,29,9,31.2c0.2,2,1.9,3.6,3.9,3.6c0.1,0,0.2,0,0.3,0
		c2.1-0.2,3.7-2.1,3.6-4.2C16.6,28.5,14.9,26.9,12.9,26.9z"/>
	<path class="st1" d="M30,29.4C30,29.4,30,29.4,30,29.4c-0.3-0.7-0.7-1.3-1.3-1.7c0,0-0.1-0.1-0.1-0.1c-0.1-0.1-0.2-0.1-0.3-0.2
		c-0.1-0.1-0.2-0.1-0.3-0.1c-0.1,0-0.2-0.1-0.3-0.1c-0.1,0-0.3-0.1-0.4-0.1c-0.1,0-0.2,0-0.2-0.1c-0.2,0-0.4-0.1-0.7-0.1
		c-0.1,0-0.2,0-0.3,0c-0.3,0-0.5,0.1-0.8,0.1c-0.1,0-0.2,0.1-0.3,0.1c-0.1,0-0.3,0.1-0.4,0.2c-0.2,0.1-0.3,0.2-0.4,0.3
		c-0.1,0-0.1,0.1-0.2,0.1c-0.2,0.1-0.3,0.3-0.5,0.5c0,0,0,0-0.1,0c-0.6,0.7-1,1.7-0.9,2.8c0,0,0,0,0,0l0,0c0,0,0,0.1,0,0.1
		c0.2,2,1.9,3.6,3.9,3.6c0.1,0,0.2,0,0.3,0c2.1-0.2,3.7-2.1,3.6-4.2C30.2,30.1,30.1,29.8,30,29.4L30,29.4z"/>
	<path class="st1" d="M38.4,13.9C38,11.8,37.2,9.8,35.9,8c-1.5-2-3.5-3.7-5.8-4.9c-2.4-1.2-5-1.8-7.6-1.8c-0.7,0-1.5,0.1-2.2,0.2
		c-3.1,0.4-6.1,1.7-8.5,3.6C9,7.2,7.2,9.9,6.6,13c-0.2,0.9-0.2,1.9-0.3,2.9C6.2,17.4,6,19,5.6,20c-0.3,0.7-0.8,1.2-2.2,1.2
		c-0.7,0-1.4,0.4-1.7,1.1c-0.3,0.7-0.2,1.5,0.2,2c1.7,2.2,3.8,3.7,6,4.7c0.2-0.6,0.5-1.2,1-1.7c0.9-1.1,2.2-1.8,3.7-1.9
		c0.2,0,0.3,0,0.5,0c2.8,0,5.1,2.2,5.4,4.9c0,0.2,0,0.5,0,0.7c0.4,0,0.7,0,1.1,0c0.1,0,0.3,0,0.4,0c0.1,0,0.2,0,0.3,0
		c0.2,0,0.3,0,0.5,0c0.1,0,0.3,0,0.4,0c-0.1-1.4,0.4-2.7,1.2-3.7c0.9-1.1,2.2-1.8,3.7-1.9c0.2,0,0.3,0,0.5,0c2.2,0,4.1,1.4,4.9,3.3
		c1-0.6,2-1.3,2.8-2.2c1.7-1.7,3-3.6,3.7-5.7C38.6,18.5,38.8,16.2,38.4,13.9z M26.2,10.7c1,0,1.9,0.8,1.9,1.9c0,1-0.8,1.9-1.9,1.9
		c-1,0-1.9-0.8-1.9-1.9C24.3,11.6,25.1,10.7,26.2,10.7z M17.2,11c1,0,1.9,0.8,1.9,1.9c0,1-0.8,1.9-1.9,1.9c-1,0-1.9-0.8-1.9-1.9
		C15.4,11.9,16.2,11,17.2,11z M28.5,18.2c-0.3,1.3-1.1,2.4-2.3,3.3c-1.2,0.9-2.7,1.4-4.3,1.4c-0.1,0-0.1,0-0.2,0
		c-1.6,0-3.1-0.5-4.4-1.5c-1.3-1-2.1-2.3-2.2-3.7c-0.1-0.5,0.3-1,0.9-1.1c0.5-0.1,1,0.3,1.1,0.9c0.2,2.1,2.7,3.5,4.8,3.4
		c2.7-0.1,4.4-1.7,4.8-3.2c0.1-0.5,0.6-0.8,1.2-0.7C28.3,17.2,28.7,17.7,28.5,18.2z"/>
</g>
</svg>
